<svg width="32" height="27" viewBox="0 0 32 27" fill="none" xmlns="http://www.w3.org/2000/svg">
<path d="M0.42959 23.4596L16.0384 26.5133V6.81168L0.34375 3.94739L0.42959 23.4596Z" fill="#3F484E"/>
<path d="M15.7559 6.81187L31.5942 3.94836V22.9322L15.7559 26.5135V6.81187Z" fill="#3F3F3F"/>
<path d="M0.345703 3.94725L16.2911 0.698608L31.8787 3.94804L16.0404 6.81154L0.345703 3.94725Z" fill="#919191"/>
<path d="M0.298126 9.98499L16.0149 12.8868L31.9186 10.003V11.8794L16.0743 14.793L0.273438 11.6171L0.298126 9.98499Z" fill="white"/>
<path d="M31.7553 13.0409L30.9922 13.1395L30.999 15.2249L31.7817 15.0997L31.7553 13.0409Z" fill="white"/>
<path d="M30.3888 13.2585L26.1152 14.1016V16.1737L30.3931 15.3291L30.3888 13.2585Z" fill="white"/>
<path d="M25.2955 14.2742L24.5332 14.3728L24.54 16.4582L25.3218 16.333L25.2955 14.2742Z" fill="white"/>
<path d="M18.3256 15.5707L17.5625 15.6693L17.5693 17.7547L18.3511 17.6295L18.3256 15.5707Z" fill="white"/>
<path d="M16.9107 15.8287L16.1484 15.9274L16.1552 18.0128L16.9371 17.8875L16.9107 15.8287Z" fill="white"/>
<path d="M23.8058 14.5203L18.9238 15.4346L18.9519 25.6212L23.7846 24.584L23.8058 14.5203Z" fill="white"/>
<path d="M9.13909 14.6433L12.9071 15.2641L12.9079 17.5264L9.10938 16.7311L9.13909 14.6433Z" fill="white"/>
<path d="M7.5382 14.309L8.38544 14.464L8.38456 16.5666L7.48633 16.3724L7.5382 14.309Z" fill="white"/>
<path d="M3.52993 13.5441L6.70812 14.1187L6.70729 16.1907L3.48828 15.6968L3.52993 13.5441Z" fill="white"/>
<path d="M1.83614 13.2043L2.68333 13.3586V15.462L1.78516 15.2678L1.83614 13.2043Z" fill="white"/>
<path d="M13.8348 15.5607L14.7152 15.7211V17.9075L13.7812 17.7063L13.8348 15.5607Z" fill="white"/>
</svg>
