<svg width="35" height="35" viewBox="0 0 35 35" fill="none" xmlns="http://www.w3.org/2000/svg">
<path d="M4.82088 24.006V25.6933H3.39844V27.7182L9.38855 28.8436L9.208 24.006H4.82088Z" fill="#F2C07C"/>
<path d="M19.2598 25.6932H23.6469V27.7181H19.2598V25.6932Z" fill="#F2C07C"/>
<path d="M15.9562 12.8275H15.1074L15.2762 12.215H15.7891L15.9562 12.8275Z" fill="#FFA726"/>
<path d="M15.498 12.215H15.7883L15.9553 12.8275H15.5436L15.498 12.215Z" fill="#FBC21A"/>
<path d="M15.5447 12.4948C15.8057 12.4948 16.0172 12.2833 16.0172 12.0224C16.0172 11.7615 15.8057 11.5499 15.5447 11.5499C15.2838 11.5499 15.0723 11.7615 15.0723 12.0224C15.0723 12.2833 15.2838 12.4948 15.5447 12.4948Z" fill="#FFA726"/>
<path d="M15.5431 11.5499C15.8029 11.5499 16.0155 11.7608 16.0155 12.0224C16.0155 12.2822 15.8046 12.4948 15.5431 12.4948C15.5431 12.4948 15.457 12.3464 15.457 12.0409C15.457 11.7338 15.5431 11.5499 15.5431 11.5499Z" fill="#FBC21A"/>
<path d="M15.5448 11.658C15.7097 11.658 15.8434 11.5243 15.8434 11.3593C15.8434 11.1944 15.7097 11.0607 15.5448 11.0607C15.3798 11.0607 15.2461 11.1944 15.2461 11.3593C15.2461 11.5243 15.3798 11.658 15.5448 11.658Z" fill="#FFA726"/>
<path d="M15.5439 11.0607C15.7092 11.0607 15.8425 11.194 15.8425 11.3593C15.8425 11.5247 15.7092 11.658 15.5439 11.658C15.5439 11.658 15.4629 11.5551 15.4629 11.3678C15.4629 11.1805 15.5439 11.0607 15.5439 11.0607Z" fill="#FFCA28"/>
<path d="M20.293 17.5095C20.293 20.7171 18.167 20.5754 15.5448 20.5754C12.9227 20.5754 10.7949 20.7171 10.7949 17.5095C10.7949 14.3018 15.5431 12.6583 15.5431 12.6583C15.5431 12.6583 20.293 14.3018 20.293 17.5095Z" fill="#FBC21A"/>
<path d="M15.5431 12.6583C15.5431 12.6583 10.7949 14.3018 10.7949 17.5095C10.7949 20.7171 12.921 20.5754 15.5431 20.5754C15.5431 20.5754 14.5543 20.6243 14.5543 17.6158C14.5543 14.6072 15.5431 12.6583 15.5431 12.6583Z" fill="#F79329"/>
<path d="M9.20703 18.5508H21.8774V29.3499H9.20703V18.5508Z" fill="#F2C07C"/>
<path d="M21.2033 19.2246V27.0421H9.88281V19.2246H21.2033Z" fill="#FFDCAE"/>
<path d="M17.8074 24.6149V27.7179H13.2734V24.6149C13.2734 23.3646 15.5412 22.1514 15.5412 22.1514C15.5412 22.1514 17.8074 23.3646 17.8074 24.6149Z" fill="#B79178"/>
<path d="M15.5432 22.1514C15.5432 22.1514 13.2754 23.3646 13.2754 24.6149V25.2612C13.2754 24.0108 15.5432 22.7976 15.5432 22.7976C15.5432 22.7976 17.8093 24.0108 17.8093 25.2612V24.6149C17.8076 23.3646 15.5432 22.1514 15.5432 22.1514Z" fill="#855C52"/>
<path d="M20.1904 21.9644V23.861H18.5098V21.9644C18.5098 21.5004 19.3501 21.0515 19.3501 21.0515C19.3501 21.0515 20.1904 21.5004 20.1904 21.9644Z" fill="#B79178"/>
<path d="M12.5771 21.9644V23.861H10.8965V21.9644C10.8965 21.5004 11.7368 21.0515 11.7368 21.0515C11.7368 21.0515 12.5771 21.5004 12.5771 21.9644Z" fill="#B79178"/>
<path d="M19.3501 21.0497C19.3501 21.0497 18.5098 21.5002 18.5098 21.9625V22.3641C18.5098 21.9001 19.3501 21.4513 19.3501 21.4513C19.3501 21.4513 20.1904 21.9018 20.1904 22.3641V21.9625C20.1904 21.5002 19.3501 21.0497 19.3501 21.0497Z" fill="#855C52"/>
<path d="M11.7368 21.0499C11.7368 21.0499 10.8965 21.5004 10.8965 21.9628V22.3644C10.8965 21.9004 11.7368 21.4515 11.7368 21.4515C11.7368 21.4515 12.5771 21.902 12.5771 22.3644V21.9628C12.5771 21.5004 11.7368 21.0499 11.7368 21.0499Z" fill="#855C52"/>
<path d="M8.19628 27.7183H5.83398V10.8447L6.99995 6.73938L8.19628 10.8447V27.7183Z" fill="#FFDCAE"/>
<path d="M5.83398 10.8447L6.99995 6.73938L8.19628 10.8447H5.83398Z" fill="#FBC21A"/>
<path d="M6.95776 27.7183H5.83398V10.8447L6.99995 6.73938L6.95776 10.8447V27.7183Z" fill="#F2C07C"/>
<path d="M5.83398 10.8447L6.99995 6.73938L6.95776 10.8447H5.83398Z" fill="#F79329"/>
<path d="M8.19713 14.8841H5.82977L5.1582 14.1417V13.1968H8.87038V14.1417L8.19713 14.8841Z" fill="#FFDCAE"/>
<path d="M8.19882 14.8841H5.82977L5.1582 14.1417V13.1968H6.66164V14.1434H8.86869L8.19882 14.8841Z" fill="#F2C07C"/>
<path d="M8.19713 19.2137H5.82977L5.1582 18.473V17.5264H8.87038V18.473L8.19713 19.2137Z" fill="#FFDCAE"/>
<path d="M8.19882 19.2137H5.82977L5.1582 18.473V17.5264H6.66164V18.4747H8.86869L8.19882 19.2137Z" fill="#F2C07C"/>
<path d="M8.19536 27.718H6.73242V21.5305L8.19536 24.0615V27.718Z" fill="#F2C07C"/>
<path d="M14.5293 24.3435H16.5541V27.7182H14.5293V24.3435Z" fill="#855C52"/>
<path d="M15.293 11.189L15.5224 8.79797L15.7654 11.189H15.293Z" fill="#FBC21A"/>
<path d="M15.293 11.189L15.5224 8.79797L15.5191 11.189H15.293Z" fill="#FFA726"/>
<path d="M24.0057 0.327271C25.8859 3.11043 28.695 8.22323 28.6919 11.5819C28.6919 20.9754 22.8872 30.6153 11.4975 28.5905C8.39269 28.5962 3.53803 25.9333 0.867188 24.3501C3.79648 30.1164 9.82663 34.0744 16.7944 34.0744C26.6363 34.0744 34.6143 26.1826 34.6143 16.4471C34.6143 9.25169 30.253 3.06697 24.0057 0.327271Z" fill="#FBC21A"/>
</svg>
