<svg width="46" height="34" viewBox="0 0 46 34" fill="none" xmlns="http://www.w3.org/2000/svg">
<path d="M38.9877 27.6108H4.26364L0.244141 33.8617H45.2403L38.9877 27.6108Z" fill="white"/>
<path d="M6.27342 28.7273L4.26367 32.7466H32.8468C36.1133 32.7339 37.5804 32.1322 39.6576 30.1787C37.3505 28.9834 35.878 28.6321 32.8468 28.7273H6.27342Z" fill="#F2F2F2"/>
<ellipse cx="19.2288" cy="5.37158" rx="4.80107" ry="4.7998" fill="#FFE1BD"/>
<path d="M14.5391 4.14366L23.8063 6.71099C24.4768 6.33762 24.4225 1.38212 20.5683 0.459883C17.442 -0.288179 15.3206 1.12956 14.5391 4.14366Z" fill="white"/>
<path d="M4.37831 32.7202H9.39062L8.95608 28.7009C4.56853 30.3935 2.81502 31.827 4.37831 32.7202Z" fill="#FFE1BD"/>
<path d="M25.505 28.4416L22.7346 26.1327L24.3662 24.6643C26.2054 27.3881 26.6783 28.791 25.505 28.4416Z" fill="#FFE1BD"/>
<path d="M11.523 27.0262C9.03109 18.1288 9.57032 13.8964 14.6493 7.9386L18.3339 11.5105C17.7855 20.2037 19.1509 22.9966 22.8 26.4681C26.2742 29.1014 26.6976 30.4611 25.368 32.719H9.28999C8.33898 29.0496 8.73153 27.6145 11.523 27.0262Z" fill="#016AAC"/>
<path d="M24.6997 24.012C20.6675 20.5301 18.9288 18.0287 16.884 12.5148C15.321 10.3939 11.9713 13.1845 13.8694 15.8635C16.1145 20.2307 17.7902 22.6135 22.5783 26.5794C23.7775 25.8373 24.2079 25.2509 24.6997 24.012Z" fill="#A8A8A8"/>
<path d="M15.0974 7.93915C14.3722 6.40744 14.308 5.58141 14.5391 4.14319L18.112 5.148C16.5302 5.36073 15.9317 6.10558 15.0974 7.93915Z" fill="#535353"/>
<path d="M19.1158 29.1472C15.9153 28.057 14.2122 27.5387 11.5234 26.9691C12.2056 26.8847 12.6748 26.8813 13.9054 27.078C16.4381 27.5292 17.3222 28.1664 19.1158 29.1472Z" fill="black" fill-opacity="0.52"/>
</svg>
