<svg width="43" height="35" viewBox="0 0 43 35" fill="none" xmlns="http://www.w3.org/2000/svg">
<path d="M17.1427 17.3445H21.0727C23.2342 17.3445 25.3071 18.1866 26.8355 19.6855C28.3638 21.1844 29.2225 23.2174 29.2225 25.3372H16.5433L16.5451 27.1134H31.0335V25.3372C31.0278 23.4473 30.4711 21.5984 29.4289 20.0087H34.6556C36.3676 20.0083 38.0445 20.4837 39.4921 21.38C40.9397 22.2763 42.0986 23.5566 42.8344 25.0726C38.5512 30.616 31.6167 34.218 23.7893 34.218C18.789 34.218 14.5529 33.1701 11.1119 31.3318V14.8064C13.3153 15.1159 15.3959 15.9916 17.1427 17.3445ZM9.30086 30.6657C9.30086 31.1368 9.11006 31.5886 8.77042 31.9216C8.43078 32.2547 7.97013 32.4419 7.48981 32.4419H3.8677C3.38737 32.4419 2.92673 32.2547 2.58709 31.9216C2.24745 31.5886 2.05664 31.1368 2.05664 30.6657V14.6802C2.05664 14.2092 2.24745 13.7574 2.58709 13.4243C2.92673 13.0912 3.38737 12.9041 3.8677 12.9041H7.48981C7.97013 12.9041 8.43078 13.0912 8.77042 13.4243C9.11006 13.7574 9.30086 14.2092 9.30086 14.6802V30.6657ZM32.8446 5.79944C34.2856 5.79944 35.6675 6.36083 36.6864 7.36011C37.7053 8.3594 38.2778 9.71472 38.2778 11.1279C38.2778 12.5411 37.7053 13.8964 36.6864 14.8957C35.6675 15.895 34.2856 16.4564 32.8446 16.4564C31.4036 16.4564 30.0217 15.895 29.0028 14.8957C27.9838 13.8964 27.4114 12.5411 27.4114 11.1279C27.4114 9.71472 27.9838 8.3594 29.0028 7.36011C30.0217 6.36083 31.4036 5.79944 32.8446 5.79944ZM20.1672 0.470947C21.6082 0.470947 22.9901 1.03234 24.009 2.03163C25.0279 3.03091 25.6004 4.38623 25.6004 5.79944C25.6004 7.21264 25.0279 8.56796 24.009 9.56724C22.9901 10.5665 21.6082 11.1279 20.1672 11.1279C18.7262 11.1279 17.3443 10.5665 16.3254 9.56724C15.3065 8.56796 14.734 7.21264 14.734 5.79944C14.734 4.38623 15.3065 3.03091 16.3254 2.03163C17.3443 1.03234 18.7262 0.470947 20.1672 0.470947Z" fill="#FFE1BD"/>
<rect x="0.650391" y="11.72" width="11.249" height="21.0919" rx="2.86296" fill="#016AAC"/>
<path d="M28.0693 20.1567C29.6619 21.7783 30.2078 23.0706 30.1785 26.4843H16.8203" stroke="#C4C4C4" stroke-width="2.14722"/>
<circle cx="20.3355" cy="6.09546" r="5.62451" fill="#FBFF23"/>
<circle cx="32.9917" cy="10.3138" r="5.62451" fill="#FBFF23"/>
</svg>
