<svg width="26" height="39" viewBox="0 0 26 39" fill="none" xmlns="http://www.w3.org/2000/svg">
<path d="M6.95761 0.540527C8.71166 0.540527 10.2115 2.07369 10.2115 3.86671V11.2802C11.4772 10.067 13.9064 9.91806 15.4787 11.7478C17.1737 10.687 19.415 11.5884 20.1053 12.9692C23.7538 12.3029 25.3963 14.5986 25.3963 18.3594C25.3963 18.5632 25.3812 19.345 25.3818 19.5473C25.3942 24.1483 23.0753 25.2563 22.5371 28.7337C22.4029 29.6004 21.6542 30.2386 20.7772 30.2386H8.04226C6.67868 30.2378 5.37761 29.4509 4.78691 28.1251C3.82217 25.9805 3.73782 23.6151 1.6378 22.7151C0.286909 22.1362 -0.474059 17.4354 0.581866 15.8515C1.6378 13.7397 2.60108 14.0016 3.2217 14.2676C3.84231 14.5337 3.09137 14.5129 3.70375 14.9466V3.86671C3.70375 2.12566 5.22896 0.540527 6.95761 0.540527ZM6.98345 31.4265H21.2385C22.2226 31.4265 23.0204 32.2243 23.0204 33.2084V36.7722C23.0204 37.7563 22.2226 38.5541 21.2385 38.5541H6.98345C5.99933 38.5541 5.20157 37.7563 5.20157 36.7722V33.2084C5.20157 32.2243 5.99933 31.4265 6.98345 31.4265ZM19.4566 33.5054C18.6365 33.5054 17.9717 34.1702 17.9717 34.9903C17.9717 35.8104 18.6365 36.4752 19.4566 36.4752C20.2768 36.4752 20.9415 35.8104 20.9415 34.9903C20.9415 34.1702 20.2768 33.5054 19.4566 33.5054Z" fill="#FFE1BD"/>
</svg>
