<svg width="33" height="33" viewBox="0 0 33 33" fill="none" xmlns="http://www.w3.org/2000/svg">
<path d="M29.5625 5.5H25.8959V8.25C25.8959 8.51483 25.8437 8.77707 25.7424 9.02174C25.641 9.26642 25.4925 9.48873 25.3052 9.676C25.1179 9.86326 24.8956 10.0118 24.6509 10.1132C24.4063 10.2145 24.144 10.2667 23.8792 10.2667C23.6144 10.2667 23.3521 10.2145 23.1075 10.1132C22.8628 10.0118 22.6405 9.86326 22.4532 9.676C22.2659 9.48873 22.1174 9.26642 22.016 9.02174C21.9147 8.77707 21.8625 8.51483 21.8625 8.25V5.5H11.1834V8.25C11.1834 8.78485 10.9709 9.2978 10.5927 9.676C10.2145 10.0542 9.70155 10.2667 9.1667 10.2667C8.63185 10.2667 8.1189 10.0542 7.7407 9.676C7.3625 9.2978 7.15003 8.78485 7.15003 8.25V5.5H3.48337C3.26522 5.49752 3.04879 5.5388 2.84688 5.62142C2.64497 5.70404 2.46168 5.82631 2.30784 5.981C2.15401 6.13569 2.03276 6.31965 1.95126 6.52202C1.86976 6.72438 1.82967 6.94104 1.83337 7.15917V27.6742C1.82972 27.8884 1.86833 28.1013 1.94698 28.3007C2.02563 28.5001 2.14279 28.682 2.29176 28.8361C2.44072 28.9901 2.61858 29.1133 2.81518 29.1987C3.01177 29.284 3.22325 29.3298 3.43753 29.3333H29.5625C29.7768 29.3298 29.9883 29.284 30.1849 29.1987C30.3815 29.1133 30.5593 28.9901 30.7083 28.8361C30.8573 28.682 30.9744 28.5001 31.0531 28.3007C31.1317 28.1013 31.1703 27.8884 31.1667 27.6742V7.15917C31.1703 6.94488 31.1317 6.73198 31.0531 6.53263C30.9744 6.33327 30.8573 6.15136 30.7083 5.99728C30.5593 5.84321 30.3815 5.71999 30.1849 5.63466C29.9883 5.54934 29.7768 5.50358 29.5625 5.5ZM9.1667 23.8333H7.33337V22H9.1667V23.8333ZM9.1667 19.25H7.33337V17.4167H9.1667V19.25ZM9.1667 14.6667H7.33337V12.8333H9.1667V14.6667ZM14.6667 23.8333H12.8334V22H14.6667V23.8333ZM14.6667 19.25H12.8334V17.4167H14.6667V19.25ZM14.6667 14.6667H12.8334V12.8333H14.6667V14.6667ZM20.1667 23.8333H18.3334V22H20.1667V23.8333ZM20.1667 19.25H18.3334V17.4167H20.1667V19.25ZM20.1667 14.6667H18.3334V12.8333H20.1667V14.6667ZM25.6667 23.8333H23.8334V22H25.6667V23.8333ZM25.6667 19.25H23.8334V17.4167H25.6667V19.25ZM25.6667 14.6667H23.8334V12.8333H25.6667V14.6667Z" fill="#022331"/>
<path d="M9.16667 9.16667C9.40978 9.16667 9.64294 9.07009 9.81485 8.89818C9.98676 8.72628 10.0833 8.49312 10.0833 8.25V2.75C10.0833 2.50689 9.98676 2.27373 9.81485 2.10182C9.64294 1.92991 9.40978 1.83334 9.16667 1.83334C8.92355 1.83334 8.69039 1.92991 8.51849 2.10182C8.34658 2.27373 8.25 2.50689 8.25 2.75V8.25C8.25 8.49312 8.34658 8.72628 8.51849 8.89818C8.69039 9.07009 8.92355 9.16667 9.16667 9.16667Z" fill="#022331"/>
<path d="M23.8333 9.16667C24.0764 9.16667 24.3096 9.07009 24.4815 8.89818C24.6534 8.72628 24.75 8.49312 24.75 8.25V2.75C24.75 2.50689 24.6534 2.27373 24.4815 2.10182C24.3096 1.92991 24.0764 1.83334 23.8333 1.83334C23.5902 1.83334 23.357 1.92991 23.1851 2.10182C23.0132 2.27373 22.9166 2.50689 22.9166 2.75V8.25C22.9166 8.49312 23.0132 8.72628 23.1851 8.89818C23.357 9.07009 23.5902 9.16667 23.8333 9.16667Z" fill="#022331"/>
</svg>
