<svg width="33" height="33" viewBox="0 0 33 33" fill="none" xmlns="http://www.w3.org/2000/svg">
<path d="M15.125 26.125H11C10.6353 26.125 10.2856 26.2699 10.0277 26.5277C9.76987 26.7856 9.625 27.1353 9.625 27.5C9.625 27.8647 9.76987 28.2144 10.0277 28.4723C10.2856 28.7301 10.6353 28.875 11 28.875H15.125C15.4897 28.875 15.8394 28.7301 16.0973 28.4723C16.3551 28.2144 16.5 27.8647 16.5 27.5C16.5 27.1353 16.3551 26.7856 16.0973 26.5277C15.8394 26.2699 15.4897 26.125 15.125 26.125ZM27.5 20.625H25.905C26.6961 19.3899 27.2379 18.0119 27.5 16.5688C27.5398 16.3334 27.5176 16.0917 27.4356 15.8674C27.3537 15.6432 27.2147 15.4442 27.0325 15.29C26.8477 15.1273 26.6226 15.0173 26.3807 14.9713C26.1389 14.9254 25.8891 14.9452 25.6575 15.0288C24.8073 15.3181 23.9156 15.4668 23.0175 15.4688C20.8218 15.4689 18.7148 14.6023 17.1545 13.0575C15.5942 11.5126 14.7067 9.41434 14.685 7.21875C14.6975 6.75769 14.7434 6.29815 14.8225 5.84375C14.8582 5.6093 14.8326 5.3696 14.7483 5.14794C14.664 4.92628 14.5237 4.7302 14.3413 4.57875C14.1551 4.41841 13.9293 4.31088 13.6875 4.26735C13.4457 4.22383 13.1966 4.24589 12.9663 4.33125C10.8062 5.07675 8.92932 6.47175 7.59275 8.32523C6.25618 10.1787 5.52524 12.4 5.5 14.685C5.50136 16.7914 6.10746 18.853 7.24625 20.625H5.5C5.13533 20.625 4.78559 20.7699 4.52773 21.0277C4.26987 21.2856 4.125 21.6353 4.125 22C4.125 22.3647 4.26987 22.7144 4.52773 22.9723C4.78559 23.2301 5.13533 23.375 5.5 23.375H27.5C27.8647 23.375 28.2144 23.2301 28.4723 22.9723C28.7301 22.7144 28.875 22.3647 28.875 22C28.875 21.6353 28.7301 21.2856 28.4723 21.0277C28.2144 20.7699 27.8647 20.625 27.5 20.625ZM22.385 20.625H10.7662C9.86902 19.7648 9.17777 18.7129 8.74414 17.548C8.31051 16.3831 8.14572 15.1352 8.26207 13.8977C8.37842 12.6601 8.77291 11.4649 9.41606 10.4012C10.0592 9.33754 10.9344 8.43294 11.9763 7.755C12.1344 10.5833 13.3696 13.2438 15.4281 15.1898C17.4867 17.1358 20.2122 18.2197 23.045 18.2188C23.4068 18.2392 23.7695 18.2392 24.1312 18.2188C23.6976 19.1187 23.1062 19.9337 22.385 20.625ZM22 26.125H20.625C20.2603 26.125 19.9106 26.2699 19.6527 26.5277C19.3949 26.7856 19.25 27.1353 19.25 27.5C19.25 27.8647 19.3949 28.2144 19.6527 28.4723C19.9106 28.7301 20.2603 28.875 20.625 28.875H22C22.3647 28.875 22.7144 28.7301 22.9723 28.4723C23.2301 28.2144 23.375 27.8647 23.375 27.5C23.375 27.1353 23.2301 26.7856 22.9723 26.5277C22.7144 26.2699 22.3647 26.125 22 26.125Z" fill="#022331"/>
</svg>
