<svg width="23" height="27" viewBox="0 0 23 27" fill="none" xmlns="http://www.w3.org/2000/svg">
<path d="M21.7664 21.4934C19.3784 21.4665 17.0632 20.6676 15.1667 19.2161C13.2703 17.7647 11.8944 15.7385 11.2446 13.4405C10.5948 11.1424 10.7059 8.69582 11.5615 6.46618C12.4171 4.23654 13.9711 2.34357 15.9914 1.0701C14.9706 0.804735 13.9203 0.66922 12.8656 0.666771C9.46195 0.666771 6.19774 2.01885 3.79102 4.42557C1.38431 6.83228 0.0322266 10.0965 0.0322266 13.5001C0.0322266 16.9037 1.38431 20.1679 3.79102 22.5746C6.19774 24.9814 9.46195 26.3334 12.8656 26.3334C14.7937 26.3317 16.696 25.8898 18.4275 25.0416C20.1591 24.1933 21.6741 22.9609 22.8572 21.4384C22.4948 21.4753 22.1307 21.4936 21.7664 21.4934Z" fill="#022331"/>
</svg>
