<svg width="27" height="27" viewBox="0 0 27 27" fill="none" xmlns="http://www.w3.org/2000/svg">
<path d="M4.2175 5.41796C4.78712 5.24621 5.39839 5.27474 5.94953 5.4988C6.50068 5.72286 6.95846 6.12893 7.24668 6.64941L7.34431 6.84337L8.20476 8.75825C8.4663 9.33946 8.55119 9.98473 8.44889 10.6138C8.34659 11.2429 8.06161 11.828 7.62939 12.2964L7.45756 12.4682L6.09853 13.7348C5.8538 13.9666 6.03735 14.8635 6.92384 16.3969C7.71921 17.7768 8.36878 18.4211 8.68641 18.4563H8.74239L8.81138 18.4433L11.48 17.6271C11.8386 17.5171 12.2214 17.5127 12.5824 17.6145C12.9435 17.7163 13.2675 17.92 13.5159 18.2011L13.6357 18.3508L15.4008 20.7981C15.7472 21.2777 15.92 21.8609 15.8906 22.4517C15.8613 23.0425 15.6316 23.6057 15.2394 24.0486L15.0806 24.2126L14.3738 24.8817C13.7402 25.4817 12.9476 25.8872 12.0904 26.0499C11.2331 26.2126 10.3471 26.1256 9.53776 25.7995C7.01887 24.7841 4.73039 22.4644 2.6515 18.8637C0.568695 15.254 -0.296969 12.1077 0.0896511 9.41303C0.206758 8.59833 0.54237 7.83057 1.06083 7.19132C1.57929 6.55207 2.26123 6.0652 3.03421 5.78245L3.28545 5.69913L4.2175 5.41796Z" fill="#9D9D9D"/>
<path fill-rule="evenodd" clip-rule="evenodd" d="M26.0081 7.20355C26.0081 11.0439 22.4498 14.1571 18.0612 14.1571C17.2741 14.1582 16.4902 14.056 15.7297 13.8531C15.1496 14.1472 13.8175 14.7114 11.5765 15.0789C11.3778 15.1107 11.2268 14.9041 11.3053 14.7193C11.657 13.8889 11.9748 12.7823 12.0702 11.773C10.8533 10.5512 10.1143 8.95187 10.1143 7.20355C10.1143 3.3632 13.6725 0.25 18.0612 0.25C22.4498 0.25 26.0081 3.3632 26.0081 7.20355ZM15.0811 7.20355C15.0811 7.467 14.9764 7.71967 14.7901 7.90596C14.6038 8.09225 14.3512 8.19691 14.0877 8.19691C13.8243 8.19691 13.5716 8.09225 13.3853 7.90596C13.199 7.71967 13.0943 7.467 13.0943 7.20355C13.0943 6.94009 13.199 6.68742 13.3853 6.50113C13.5716 6.31484 13.8243 6.21018 14.0877 6.21018C14.3512 6.21018 14.6038 6.31484 14.7901 6.50113C14.9764 6.68742 15.0811 6.94009 15.0811 7.20355ZM19.0545 7.20355C19.0545 7.467 18.9499 7.71967 18.7636 7.90596C18.5773 8.09225 18.3246 8.19691 18.0612 8.19691C17.7977 8.19691 17.545 8.09225 17.3588 7.90596C17.1725 7.71967 17.0678 7.467 17.0678 7.20355C17.0678 6.94009 17.1725 6.68742 17.3588 6.50113C17.545 6.31484 17.7977 6.21018 18.0612 6.21018C18.3246 6.21018 18.5773 6.31484 18.7636 6.50113C18.9499 6.68742 19.0545 6.94009 19.0545 7.20355ZM22.0346 8.19691C22.2981 8.19691 22.5507 8.09225 22.737 7.90596C22.9233 7.71967 23.028 7.467 23.028 7.20355C23.028 6.94009 22.9233 6.68742 22.737 6.50113C22.5507 6.31484 22.2981 6.21018 22.0346 6.21018C21.7712 6.21018 21.5185 6.31484 21.3322 6.50113C21.1459 6.68742 21.0413 6.94009 21.0413 7.20355C21.0413 7.467 21.1459 7.71967 21.3322 7.90596C21.5185 8.09225 21.7712 8.19691 22.0346 8.19691Z" fill="#9D9D9D"/>
</svg>
