<svg width="28" height="28" viewBox="0 0 28 28" fill="none" xmlns="http://www.w3.org/2000/svg">
<rect y="2" width="28" height="24" rx="5" fill="#09A7FF"/>
<path fill-rule="evenodd" clip-rule="evenodd" d="M8.4443 5.6853C10.0888 4.58649 12.0222 4 14 4C16.6522 4 19.1957 5.05357 21.0711 6.92893C22.9464 8.8043 24 11.3478 24 14C24 15.9778 23.4135 17.9112 22.3147 19.5557C21.2159 21.2002 19.6541 22.4819 17.8268 23.2388C15.9996 23.9957 13.9889 24.1937 12.0491 23.8078C10.1093 23.422 8.32746 22.4696 6.92894 21.0711C5.53041 19.6725 4.578 17.8907 4.19215 15.9509C3.8063 14.0111 4.00433 12.0004 4.76121 10.1732C5.51809 8.3459 6.79981 6.78412 8.4443 5.6853ZM19.375 18.1937H21.6375C21.8449 17.8363 22.0266 17.4645 22.1813 17.0812H19.6813C19.9148 16.0707 20.0343 15.0372 20.0375 14C20.0373 13.0335 19.9346 12.0698 19.7313 11.125H22.2688C22.1373 10.7372 21.9786 10.3592 21.7938 9.99375H19.4375C18.9894 8.51698 18.2987 7.12506 17.3938 5.875C16.8155 5.6445 16.2141 5.47687 15.6 5.375C16.7798 6.64317 17.6844 8.14058 18.2581 9.77292C17.2894 8.79714 15.9876 8.15249 14.5375 8.02375V5.25H13.4813V8.02211C12.033 8.14614 10.7316 8.78464 9.76068 9.75405C10.3355 8.11901 11.2422 6.61941 12.425 5.35C11.8099 5.4598 11.2085 5.63582 10.6313 5.875C9.72098 7.13416 9.02806 8.5369 8.58125 10.025H6.2C6.01517 10.3904 5.85644 10.7684 5.725 11.1562H8.28125C8.08215 12.0911 7.9816 13.0442 7.98125 14C7.98791 15.0311 8.1095 16.0583 8.34375 17.0625H5.84375C5.98948 17.4515 6.16284 17.8295 6.3625 18.1937H8.6625C9.08731 19.5439 9.71989 20.8196 10.5375 21.975C11.1272 22.2301 11.7435 22.4187 12.375 22.5375C11.2396 21.3028 10.3618 19.8545 9.79236 18.2774C10.7598 19.2291 12.0487 19.8552 13.4813 19.9779V22.65H14.5375V19.9763C15.9591 19.85 17.2381 19.2281 18.2005 18.2844C17.6302 19.8517 16.7549 21.291 15.625 22.5187C16.2698 22.3987 16.8988 22.2058 17.5 21.9437C18.3147 20.798 18.9472 19.533 19.375 18.1937Z" fill="white"/>
<path fill-rule="evenodd" clip-rule="evenodd" d="M17.1585 10.5253C17.4908 10.7784 17.606 11.333 17.4112 11.7432C17.32 11.9354 17.0065 12.2851 16.9638 12.2423C16.9526 12.2312 16.9634 12.1094 16.9877 11.9717C17.0401 11.6745 17.0068 11.3987 16.9031 11.2707C16.7823 11.1218 16.495 11.1416 16.1982 11.3194C15.6841 11.6274 15.0514 12.3602 14.8426 12.8894C14.7297 13.1755 14.7362 13.3429 14.8663 13.4973C15.017 13.6762 15.2283 13.7713 15.6798 13.8635C16.4189 14.0144 16.6119 14.1123 16.7443 14.4035C16.8354 14.6039 16.8433 14.9587 16.7617 15.1897C16.664 15.4662 16.4198 15.797 16.0133 16.2035C15.1184 17.0984 14.0612 17.5438 12.8207 17.5484C12.1351 17.551 11.676 17.3935 11.3133 17.0312C10.7723 16.4909 10.6429 15.344 11.0011 14.2654C11.0999 13.9677 11.443 13.2391 11.4711 13.2672C11.4813 13.2773 11.4355 13.4471 11.3695 13.6444C10.9723 14.8302 11.2264 15.7293 12.063 16.0988C13.1255 16.5681 14.4531 16.3635 15.6377 15.5477C16.0048 15.2948 16.2356 15.0464 16.2987 14.8362C16.3409 14.6957 16.3381 14.6579 16.2792 14.5681C16.1898 14.4319 16.1143 14.4062 15.5663 14.3256C14.9782 14.2392 14.7286 14.1441 14.4733 13.9092C14.1992 13.657 14.1334 13.43 14.2177 13.0272C14.3803 12.2496 15.0503 11.3487 15.8851 10.7853C16.4932 10.3748 16.8621 10.2995 17.1585 10.5253Z" fill="white"/>
<path fill-rule="evenodd" clip-rule="evenodd" d="M14 19.3296C16.9435 19.3296 19.3296 16.9435 19.3296 14C19.3296 11.0565 16.9435 8.67039 14 8.67039C11.0565 8.67039 8.67039 11.0565 8.67039 14C8.67039 16.9435 11.0565 19.3296 14 19.3296ZM14 20C17.3137 20 20 17.3137 20 14C20 10.6863 17.3137 8 14 8C10.6863 8 8 10.6863 8 14C8 17.3137 10.6863 20 14 20Z" fill="white"/>
</svg>
