<svg width="48" height="29" viewBox="0 0 48 29" fill="none" xmlns="http://www.w3.org/2000/svg">
<path d="M14.7959 21.7049V15.5015L15.1433 15.1751C15.3934 14.9401 15.6793 14.8487 16.1641 14.8487C16.8236 14.8487 16.8374 14.8385 16.8374 14.3609C16.8374 12.3275 18.2977 10.7602 21.0031 9.8899C21.5687 9.70792 22.2611 9.35747 22.5417 9.11108C23.0136 8.6968 23.0519 8.59663 23.0519 7.77804C23.0519 7.09211 23.0014 6.89294 22.8272 6.89294C22.4646 6.89294 21.377 5.81816 21.0803 5.16667C20.7226 4.38125 20.7249 3.09159 21.0854 2.31458C21.8748 0.613374 23.8959 -0.1741 25.5477 0.575999C26.3955 0.960997 26.4386 1.11268 25.7021 1.11942C24.8353 1.12795 23.998 1.57704 23.5282 2.28688C23.0403 3.02414 22.9913 4.31322 23.4234 5.04467C23.9251 5.894 24.9729 6.4018 26.0303 6.308C26.2631 6.28741 26.3455 6.33539 26.2745 6.45046C26.1255 6.69151 24.9997 7.1859 24.5906 7.18991C24.2867 7.19344 24.2528 7.26701 24.2528 7.92819C24.2528 8.57609 24.3132 8.71628 24.763 9.11114C25.0436 9.35752 25.736 9.70797 26.3016 9.88995C29.007 10.7603 30.4673 12.3276 30.4673 14.3609C30.4673 14.841 30.4776 14.8488 31.1617 14.8488C31.6934 14.8488 31.9325 14.9301 32.1824 15.1962C32.5066 15.5413 32.5088 15.585 32.5088 21.7259V27.9083H23.6524H14.7959L14.7959 21.7049ZM20.0163 23.5865C20.0677 20.9387 19.9285 20.3121 19.2224 20.0171C18.8431 19.8587 18.609 19.8439 18.3053 19.9593C17.5532 20.2452 17.5078 20.4299 17.5026 23.2233L17.4975 25.8188L18.7359 25.7752L19.9743 25.7316L20.0163 23.5865ZM24.8532 23.245C24.8532 21.836 24.7872 20.5597 24.7063 20.4087C24.3558 19.7537 22.949 19.7537 22.5985 20.4087C22.5176 20.5596 22.4516 21.836 22.4516 23.245V25.8067H23.6525H24.8533L24.8532 23.245ZM29.8068 23.206C29.8068 20.6991 29.7949 20.5943 29.4691 20.3012C28.9658 19.8482 28.6443 19.7823 28.0825 20.017C27.6931 20.1797 27.539 20.3617 27.4163 20.8036C27.243 21.4276 27.1916 25.5432 27.355 25.7067C27.41 25.7616 27.9842 25.8067 28.6309 25.8067H29.8068L29.8068 23.206Z" fill="#9D9D9D"/>
<path d="M39.8324 14.2637H35.0513C34.7846 14.2637 34.5684 14.4799 34.5684 14.7467V27.4434C34.5684 27.7101 34.7846 27.9263 35.0513 27.9263H39.8324C40.0991 27.9263 40.3153 27.7101 40.3153 27.4434V14.7467C40.3153 14.4799 40.0991 14.2637 39.8324 14.2637Z" fill="#9D9D9D"/>
<path d="M34.7924 12.7586C33.1794 8.32255 36.8846 8.6656 37.4189 6.86646C38.12 8.7462 41.6054 8.23124 39.9767 12.7578L34.7924 12.7586Z" fill="#9D9D9D"/>
<path d="M12.4437 14.3463H7.66264C7.39591 14.3463 7.17969 14.5625 7.17969 14.8292V27.5259C7.17969 27.7927 7.39591 28.0089 7.66264 28.0089H12.4437C12.7104 28.0089 12.9267 27.7927 12.9267 27.5259V14.8292C12.9267 14.5625 12.7104 14.3463 12.4437 14.3463Z" fill="#9D9D9D"/>
<path d="M7.40375 12.8412C5.79071 8.40509 9.49596 8.74814 10.0302 6.94901C10.7313 8.82874 14.2168 8.31379 12.588 12.8403L7.40375 12.8412Z" fill="#9D9D9D"/>
</svg>
