<svg width="33" height="33" viewBox="0 0 33 33" fill="none" xmlns="http://www.w3.org/2000/svg">
<path d="M15.6471 3.38353L13.1716 5.91989C14.0367 6.10788 14.8606 6.45061 15.6038 6.93155L15.6471 3.38353Z" fill="#022331"/>
<path d="M4.37348 14.718L1.83557 17.1935L5.38462 17.1502C4.90339 16.4072 4.5608 15.5832 4.37348 14.718Z" fill="#022331"/>
<path d="M5.38462 9.14616L1.83557 9.10284L4.37348 11.5789C4.56125 10.7137 4.9038 9.88955 5.38462 9.14616Z" fill="#022331"/>
<path d="M10.0325 5.91937L7.55701 3.3825L7.60032 6.93052C8.34373 6.4501 9.16763 6.10758 10.0325 5.91937Z" fill="#022331"/>
<path d="M17.6792 8.93423L19.076 5.67445L15.8173 7.07128C16.544 7.57634 17.1745 8.20725 17.6792 8.93423Z" fill="#022331"/>
<path d="M4.20234 13.1484C4.20234 12.6983 4.24978 12.259 4.32609 11.83L1.03125 13.1479L4.32661 14.4664C4.24616 14.0316 4.20457 13.5906 4.20234 13.1484Z" fill="#022331"/>
<path d="M7.38783 7.07076L4.12805 5.67393L5.52488 8.93372C6.02978 8.20659 6.6607 7.57566 7.38783 7.07076Z" fill="#022331"/>
<path d="M12.9201 5.87348L11.6016 2.57812L10.2842 5.87348C10.7121 5.79666 11.1515 5.74973 11.6016 5.74973C12.0528 5.74922 12.4921 5.79614 12.9201 5.87348Z" fill="#022331"/>
<path d="M28.6311 17.7396C28.5322 17.6813 28.4318 17.6256 28.33 17.5725V17.524C28.33 13.2639 24.9351 9.79687 20.7632 9.79687C20.7266 9.79687 20.69 9.79997 20.6534 9.80048L21.3675 9.10336L17.8195 9.14667C18.033 9.4777 18.217 9.82884 18.3764 10.1924C18.1531 10.2687 17.9355 10.3574 17.721 10.4538C16.6841 8.10047 14.339 6.45356 11.6021 6.45356C7.90505 6.45356 4.90823 9.45089 4.90823 13.1479C4.90823 14.7907 5.50945 16.2855 6.49172 17.4493C6.3757 17.6797 6.26794 17.9164 6.17616 18.1613C5.94309 17.9092 5.72189 17.6457 5.52544 17.3626L4.12758 20.6219L4.84842 20.3125C4.29245 20.8651 3.85121 21.5221 3.55008 22.2457C3.24894 22.9694 3.09386 23.7455 3.09375 24.5293C3.09375 27.076 4.686 29.3236 7.05684 30.1228C7.63898 30.3213 8.24948 30.4219 8.86669 30.4219H25.3131C25.8096 30.4219 26.3129 30.3626 26.8115 30.244C29.8459 29.5324 31.9688 26.8104 31.9688 23.6254C31.9688 21.2066 30.69 18.9513 28.6311 17.7396ZM26.3752 28.3305C26.0275 28.4141 25.6712 28.4569 25.3136 28.4579H8.86617C8.45571 28.4576 8.04808 28.3898 7.65961 28.2573C6.12666 27.7401 5.01909 26.267 5.01909 24.5293C5.01909 23.347 5.53163 22.29 6.33961 21.5707C6.70688 21.2415 7.13474 20.987 7.59928 20.8215C8.00575 20.6754 8.43425 20.6 8.86617 20.5987C10.1068 20.5987 11.2066 21.201 11.9104 22.1322L11.9445 22.1317C11.1277 20.5961 9.60094 19.5138 7.8143 19.3401C8.47894 16.9728 10.6121 15.2357 13.1448 15.2357C13.4145 15.2357 13.6775 15.2625 13.9373 15.3007C14.4519 15.3759 14.9423 15.5203 15.4007 15.7286C17.1079 16.5067 18.3547 18.1361 18.6316 20.0877L18.6326 20.0547C18.6326 17.8308 17.5158 15.8751 15.825 14.734C16.7877 12.9628 18.6367 11.7614 20.7627 11.7614C23.8786 11.7614 26.4041 14.3421 26.4041 17.5245C26.4041 17.6797 26.3938 17.8303 26.382 17.9814C25.1131 18.0812 23.9117 18.5931 22.9608 19.4391C23.9481 18.8572 25.1161 18.6617 26.2391 18.8904C26.7431 18.9934 27.2263 19.1797 27.669 19.4416C28.395 19.8718 28.996 20.4842 29.4125 21.2181C29.829 21.952 30.0465 22.7821 30.0434 23.6259C30.0444 25.9189 28.4764 27.8381 26.3752 28.3305Z" fill="#022331"/>
</svg>
